<svg width="488" height="488" viewBox="0 0 488 488" fill="none" xmlns="http://www.w3.org/2000/svg">
<rect width="488" height="488.004" rx="40" fill="white"/>
<path fill-rule="evenodd" clip-rule="evenodd" d="M88 88V148L148.004 148L148.004 88L88 88Z" fill="#047857"/>
<path fill-rule="evenodd" clip-rule="evenodd" d="M88 340.002V400.002L148.004 400.002L148.004 340.002L88 340.002Z" fill="#047857"/>
<path fill-rule="evenodd" clip-rule="evenodd" d="M340 88V148L400.004 148L400.004 88L340 88Z" fill="#047857"/>
<path fill-rule="evenodd" clip-rule="evenodd" d="M339.996 340.002V400.002L400 400.002L400 340.002L339.996 340.002Z" fill="#047857"/>
<path d="M244 356L288 400.002L244 444.004L200 400.002L244 356Z" fill="#047857"/>
<path d="M244 44L288 88.0019L244 132.004L200 88.0019L244 44Z" fill="#047857"/>
<path d="M244 200.004L288 244.006L244 288.008L200 244.006L244 200.004Z" fill="#047857"/>
<path d="M400 200L444 244.002L400 288.004L356 244.002L400 200Z" fill="#047857"/>
<path d="M88 200L132 244.002L88 288.004L44 244.002L88 200Z" fill="#047857"/>
</svg>
